<svg width="50" height="23" viewBox="0 0 50 23" fill="none" xmlns="http://www.w3.org/2000/svg">
<path d="M9.2 4C10.2667 4 11.1533 4.18667 11.86 4.56C12.58 4.93333 13.1467 5.44667 13.56 6.1C13.9867 6.74 14.2867 7.48 14.46 8.32C14.6467 9.16 14.74 10.04 14.74 10.96V11.92C14.74 14.2267 14.1667 16.0067 13.02 17.26C11.8733 18.5 10.2133 19.12 8.04 19.12C7.52 19.12 7.08 19.1067 6.72 19.08C6.36 19.0533 5.96667 19.0133 5.54 18.96V17.32C5.98 17.3733 6.38667 17.4133 6.76 17.44C7.13333 17.4667 7.58667 17.48 8.12 17.48C9.33333 17.48 10.2933 17.2533 11 16.8C11.7067 16.3467 12.2133 15.7 12.52 14.86C12.8267 14.0067 12.98 12.98 12.98 11.78V10.88L13.46 9.1C13.4467 10.1533 13.24 11.0267 12.84 11.72C12.4533 12.4133 11.9133 12.9333 11.22 13.28C10.54 13.6267 9.75333 13.8 8.86 13.8C7.82 13.8 6.94 13.5933 6.22 13.18C5.5 12.7533 4.95333 12.1733 4.58 11.44C4.22 10.7067 4.04 9.87333 4.04 8.94C4.04 7.99333 4.23333 7.14667 4.62 6.4C5.00667 5.65333 5.58 5.06667 6.34 4.64C7.11333 4.21333 8.06667 4 9.2 4ZM9.2 5.68C8.46667 5.68 7.85333 5.82 7.36 6.1C6.86667 6.38 6.49333 6.76667 6.24 7.26C6 7.74 5.88 8.3 5.88 8.94C5.88 9.58 6 10.1467 6.24 10.64C6.48 11.1333 6.83333 11.52 7.3 11.8C7.78 12.0667 8.36667 12.2 9.06 12.2C9.74 12.2 10.3467 12.0733 10.88 11.82C11.4267 11.5667 11.8533 11.2 12.16 10.72C12.4667 10.2267 12.62 9.62667 12.62 8.92C12.62 8.33333 12.5 7.79333 12.26 7.3C12.02 6.80667 11.6467 6.41333 11.14 6.12C10.6333 5.82667 9.98667 5.68 9.2 5.68ZM23.6236 19.36C22.5303 19.36 21.5969 19.1733 20.8236 18.8C20.0636 18.4133 19.4436 17.8933 18.9636 17.24C18.4969 16.5867 18.1569 15.8333 17.9436 14.98C17.7303 14.1133 17.6236 13.2 17.6236 12.24V11.16C17.6236 9.81333 17.8303 8.6 18.2436 7.52C18.6703 6.44 19.3236 5.58667 20.2036 4.96C21.0969 4.32 22.2369 4 23.6236 4C25.0103 4 26.1436 4.32 27.0236 4.96C27.9036 5.58667 28.5503 6.44 28.9636 7.52C29.3903 8.6 29.6036 9.81333 29.6036 11.16V12.24C29.6036 13.2 29.4969 14.1133 29.2836 14.98C29.0703 15.8333 28.7236 16.5867 28.2436 17.24C27.7769 17.8933 27.1636 18.4133 26.4036 18.8C25.6436 19.1733 24.7169 19.36 23.6236 19.36ZM23.6236 17.6C25.0103 17.6 26.0236 17.1333 26.6636 16.2C27.3169 15.2533 27.6436 13.76 27.6436 11.72C27.6436 9.58667 27.3103 8.06 26.6436 7.14C25.9903 6.22 24.9836 5.76 23.6236 5.76C22.2503 5.76 21.2303 6.22 20.5636 7.14C19.9103 8.06 19.5836 9.57333 19.5836 11.68C19.5836 13.7333 19.9103 15.2333 20.5636 16.18C21.2169 17.1267 22.2369 17.6 23.6236 17.6ZM31.3669 19L36.8069 11.2V11.56L31.8469 4.4H34.0669L37.8869 10H38.2069L42.0869 4.4H44.2069L39.1069 11.64L39.0869 11.28L44.6069 19H42.3869L38.0269 12.86H37.7069L33.4869 19H31.3669Z" fill="#10B981"/>
<rect x="2.05" y="2.05" width="45.9" height="18.9" stroke="#10B981" stroke-width="0.1"/>
<rect x="0.95" y="19.95" width="2.1" height="2.1" stroke="#10B981" stroke-width="0.1"/>
<rect x="0.95" y="0.95" width="2.1" height="2.1" stroke="#10B981" stroke-width="0.1"/>
<rect x="46.95" y="0.95" width="2.1" height="2.1" stroke="#10B981" stroke-width="0.1"/>
<rect x="46.95" y="19.95" width="2.1" height="2.1" stroke="#10B981" stroke-width="0.1"/>
</svg>
