<svg width="139" height="30" viewBox="0 0 139 30" fill="none" xmlns="http://www.w3.org/2000/svg">
<path d="M9.92 2C11.6267 2 13.0453 2.29866 14.176 2.896C15.328 3.49333 16.2347 4.31467 16.896 5.36C17.5787 6.384 18.0587 7.568 18.336 8.912C18.6347 10.256 18.784 11.664 18.784 13.136V14.672C18.784 18.3627 17.8667 21.2107 16.032 23.216C14.1973 25.2 11.5413 26.192 8.064 26.192C7.232 26.192 6.528 26.1707 5.952 26.128C5.376 26.0853 4.74667 26.0213 4.064 25.936V23.312C4.768 23.3973 5.41867 23.4613 6.016 23.504C6.61333 23.5467 7.33867 23.568 8.192 23.568C10.1333 23.568 11.6693 23.2053 12.8 22.48C13.9307 21.7547 14.7413 20.72 15.232 19.376C15.7227 18.0107 15.968 16.368 15.968 14.448V13.008L16.736 10.16C16.7147 11.8453 16.384 13.2427 15.744 14.352C15.1253 15.4613 14.2613 16.2933 13.152 16.848C12.064 17.4027 10.8053 17.68 9.376 17.68C7.712 17.68 6.304 17.3493 5.152 16.688C4 16.0053 3.12533 15.0773 2.528 13.904C1.952 12.7307 1.664 11.3973 1.664 9.904C1.664 8.38933 1.97333 7.03467 2.592 5.84C3.21067 4.64533 4.128 3.70667 5.344 3.024C6.58133 2.34133 8.10667 2 9.92 2ZM9.92 4.688C8.74667 4.688 7.76533 4.912 6.976 5.36C6.18667 5.808 5.58933 6.42667 5.184 7.216C4.8 7.984 4.608 8.88 4.608 9.904C4.608 10.928 4.8 11.8347 5.184 12.624C5.568 13.4133 6.13333 14.032 6.88 14.48C7.648 14.9067 8.58667 15.12 9.696 15.12C10.784 15.12 11.7547 14.9173 12.608 14.512C13.4827 14.1067 14.1653 13.52 14.656 12.752C15.1467 11.9627 15.392 11.0027 15.392 9.872C15.392 8.93333 15.2 8.06933 14.816 7.28C14.432 6.49067 13.8347 5.86133 13.024 5.392C12.2133 4.92267 11.1787 4.688 9.92 4.688ZM50.7308 26L59.4348 13.52V14.096L51.4988 2.64H55.0508L61.1628 11.6H61.6748L67.8828 2.64H71.2748L63.1148 14.224L63.0828 13.648L71.9148 26H68.3628L61.3868 16.176H60.8748L54.1228 26H50.7308ZM82.0175 26.576C80.8015 26.576 79.6815 26.352 78.6575 25.904C77.6335 25.456 76.7375 24.8267 75.9695 24.016C75.2228 23.2053 74.6362 22.2667 74.2095 21.2C73.8042 20.1333 73.6015 18.9813 73.6015 17.744V17.168C73.6015 15.952 73.8042 14.8107 74.2095 13.744C74.6148 12.6773 75.1802 11.7387 75.9055 10.928C76.6522 10.1173 77.5268 9.488 78.5295 9.04C79.5535 8.57067 80.6842 8.336 81.9215 8.336C83.2228 8.336 84.4068 8.61333 85.4735 9.168C86.5402 9.70133 87.4148 10.544 88.0975 11.696C88.7802 12.848 89.1642 14.3413 89.2495 16.176L87.9695 14.128V2.64H91.0415V26H88.6095V18.416H89.5055C89.4202 20.3573 89.0148 21.936 88.2895 23.152C87.5642 24.3467 86.6468 25.2213 85.5375 25.776C84.4495 26.3093 83.2762 26.576 82.0175 26.576ZM82.4335 23.888C83.4788 23.888 84.4282 23.6533 85.2815 23.184C86.1348 22.7147 86.8175 22.0427 87.3295 21.168C87.8415 20.272 88.0975 19.2267 88.0975 18.032V16.56C88.0975 15.3867 87.8308 14.3947 87.2975 13.584C86.7855 12.752 86.0922 12.1227 85.2175 11.696C84.3642 11.248 83.4255 11.024 82.4015 11.024C81.2708 11.024 80.2682 11.2907 79.3935 11.824C78.5402 12.3573 77.8682 13.104 77.3775 14.064C76.9082 15.024 76.6735 16.1547 76.6735 17.456C76.6735 18.7573 76.9188 19.8987 77.4095 20.88C77.9002 21.84 78.5828 22.5867 79.4575 23.12C80.3322 23.632 81.3242 23.888 82.4335 23.888ZM104.208 26.576C102.715 26.576 101.424 26.32 100.336 25.808C99.248 25.296 98.3627 24.624 97.68 23.792C96.9973 22.9387 96.4853 21.9893 96.144 20.944C95.824 19.8987 95.664 18.832 95.664 17.744V17.168C95.664 16.0587 95.824 14.9813 96.144 13.936C96.4853 12.8907 96.9973 11.952 97.68 11.12C98.3627 10.2667 99.2267 9.59467 100.272 9.104C101.339 8.592 102.587 8.336 104.016 8.336C105.872 8.336 107.397 8.74133 108.592 9.552C109.808 10.3413 110.704 11.3653 111.28 12.624C111.877 13.8827 112.176 15.2267 112.176 16.656V18.032H97.008V15.728H109.936L109.232 16.976C109.232 15.76 109.04 14.7147 108.656 13.84C108.272 12.944 107.696 12.2507 106.928 11.76C106.16 11.2693 105.189 11.024 104.016 11.024C102.8 11.024 101.787 11.3013 100.976 11.856C100.187 12.4107 99.5893 13.168 99.184 14.128C98.8 15.088 98.608 16.1973 98.608 17.456C98.608 18.672 98.8 19.7707 99.184 20.752C99.5893 21.712 100.208 22.48 101.04 23.056C101.872 23.6107 102.928 23.888 104.208 23.888C105.552 23.888 106.64 23.5893 107.472 22.992C108.325 22.3947 108.837 21.7013 109.008 20.912H111.888C111.653 22.0853 111.184 23.0987 110.48 23.952C109.776 24.8053 108.891 25.456 107.824 25.904C106.757 26.352 105.552 26.576 104.208 26.576ZM120.061 26L114.237 8.912H117.437L123.133 26H120.061ZM120.829 26V23.568H124.541V26H120.829ZM122.301 26L127.261 8.912H130.269L125.213 26H122.301Z" fill="black"/>
<path d="M47.3002 5.7352C45.9971 3.96118 44.2956 2.518 42.3327 1.52185C40.3699 0.525706 38.2005 0.00444333 35.9994 4.00153e-05H34.4015C34.2858 -0.00144927 34.1734 0.0386764 34.0848 0.113108C33.9962 0.187539 33.9373 0.291323 33.9188 0.405556L33.5085 2.9352C32.2387 3.21891 31.0282 3.72209 29.9314 4.4221L27.8556 2.89658C27.7624 2.83015 27.6486 2.79902 27.5345 2.80875C27.4204 2.81848 27.3135 2.86843 27.2329 2.94969L24.9737 5.23313C24.8919 5.31467 24.8421 5.42282 24.8332 5.53797C24.8244 5.65312 24.8571 5.76762 24.9254 5.86071L26.4316 7.92691C25.7183 9.02483 25.2112 10.2436 24.9351 11.5235L22.4055 11.9338C22.2913 11.9523 22.1875 12.0112 22.1131 12.0998C22.0387 12.1884 21.9986 12.3008 22 12.4166V15.6076C21.9987 15.724 22.0395 15.837 22.1149 15.9257C22.1903 16.0144 22.2953 16.0729 22.4104 16.0903L24.9447 16.4862C25.2258 17.7599 25.7291 18.9741 26.4316 20.0731L24.9254 22.1489C24.8571 22.242 24.8244 22.3565 24.8332 22.4717C24.8421 22.5868 24.8919 22.695 24.9737 22.7765L27.2232 25.0262C27.3048 25.108 27.4129 25.1578 27.5281 25.1667C27.6432 25.1755 27.7577 25.1428 27.8508 25.0745L29.9362 23.5682C31.0364 24.2683 32.2501 24.7715 33.523 25.0551L33.9236 27.5944C33.9421 27.7087 34.001 27.8125 34.0897 27.8869C34.1783 27.9613 34.2907 28.0014 34.4064 28H35.9994C38.2005 27.9956 40.3699 27.4743 42.3327 26.4781C44.2956 25.482 45.9971 24.0388 47.3002 22.2648C49.0545 19.8662 50 16.9717 50 14C50 11.0283 49.0545 8.13377 47.3002 5.7352ZM45.9148 22.4531L45.6541 22.7379L45.4176 22.9938C45.3307 23.0807 45.2438 23.1724 45.1521 23.2593L44.9059 23.5007L44.6259 23.7517L44.3652 23.9786L44.0756 24.2151L43.8004 24.4227C43.7039 24.5 43.6025 24.5724 43.4963 24.6448L43.2163 24.8379L42.9025 25.0407L42.608 25.2193L42.2846 25.4027C42.1832 25.4558 42.0867 25.5138 41.9853 25.562L41.6474 25.731L41.3385 25.8758L40.9957 26.0255L40.6819 26.151L40.3247 26.2813L40.0061 26.3924L39.6392 26.5034L39.4751 26.5517C40.9233 25.2869 42.106 23.2351 42.8832 20.6089C44.0475 20.9592 45.162 21.4573 46.1996 22.091L46.1368 22.2069C46.0644 22.2793 45.9872 22.3662 45.9148 22.4531ZM40.0158 1.60762L40.3344 1.71866L40.6916 1.849L41.0054 1.97452L41.3481 2.12417L41.6571 2.269C41.7729 2.3221 41.8839 2.38003 41.995 2.43796C42.106 2.4959 42.1929 2.54417 42.2943 2.59727L42.6177 2.78072L42.9122 2.95934L43.2259 3.1621L43.5059 3.3552C43.6121 3.42762 43.7135 3.50003 43.8101 3.57727L44.0852 3.78486L44.3749 4.02141L44.6355 4.2483L44.9155 4.49934L45.1617 4.74072C45.2534 4.82761 45.3403 4.91934 45.4272 5.00623L45.6638 5.26209L45.9148 5.54692C45.9872 5.63382 46.0644 5.72071 46.1368 5.81244L46.2093 5.90899C45.1709 6.54243 44.0566 7.04202 42.8929 7.39588C42.1157 4.76485 40.9233 2.71314 39.4847 1.44831L39.6489 1.49659L40.0158 1.60762ZM36.4821 21.7917V19.6C38.3332 19.6278 40.1743 19.8774 41.966 20.3434C40.8268 24.1379 38.7462 26.682 36.4821 27.0007V21.7917ZM42.2122 19.3779C40.3384 18.9043 38.4148 18.6563 36.4821 18.6393V14.4828H42.8349C42.809 16.1404 42.6002 17.7902 42.2122 19.4021V19.3779ZM36.4821 13.5172V9.3607C38.4157 9.33576 40.3394 9.07969 42.2122 8.59795C42.6002 10.2098 42.809 11.8596 42.8349 13.5172H36.4821ZM36.4821 0.999348C38.7462 1.31797 40.8268 3.84762 41.966 7.65657C40.1743 8.12258 38.3332 8.37217 36.4821 8.40002V0.999348ZM35.5167 8.8876V21.28C34.4527 21.2092 33.417 20.9073 32.4816 20.3954C31.5462 19.8835 30.7336 19.1738 30.1004 18.3158C29.1848 17.0631 28.6913 15.5517 28.6913 14C28.6913 12.4483 29.1848 10.9369 30.1004 9.68415C30.7336 8.82618 31.5462 8.11655 32.4816 7.60464C33.417 7.09273 34.4527 6.79085 35.5167 6.72002V8.8876ZM43.8004 14.4828H49.0333C48.9511 16.9242 48.1759 19.2918 46.7982 21.3089C45.6657 20.6011 44.4431 20.049 43.1632 19.6676C43.5657 17.968 43.7794 16.2292 43.8004 14.4828ZM43.8004 13.5172C43.7731 11.7701 43.5529 10.0313 43.1439 8.33243C44.4237 7.95099 45.6464 7.3989 46.7789 6.69106C48.1634 8.70613 48.9454 11.0739 49.0333 13.5172H43.8004Z" fill="#3B82F6"/>
</svg>
