<svg width="139" height="30" viewBox="0 0 139 30" fill="none" xmlns="http://www.w3.org/2000/svg">
<path d="M9.92 2C11.6267 2 13.0453 2.29866 14.176 2.896C15.328 3.49333 16.2347 4.31467 16.896 5.36C17.5787 6.384 18.0587 7.568 18.336 8.912C18.6347 10.256 18.784 11.664 18.784 13.136V14.672C18.784 18.3627 17.8667 21.2107 16.032 23.216C14.1973 25.2 11.5413 26.192 8.064 26.192C7.232 26.192 6.528 26.1707 5.952 26.128C5.376 26.0853 4.74667 26.0213 4.064 25.936V23.312C4.768 23.3973 5.41867 23.4613 6.016 23.504C6.61333 23.5467 7.33867 23.568 8.192 23.568C10.1333 23.568 11.6693 23.2053 12.8 22.48C13.9307 21.7547 14.7413 20.72 15.232 19.376C15.7227 18.0107 15.968 16.368 15.968 14.448V13.008L16.736 10.16C16.7147 11.8453 16.384 13.2427 15.744 14.352C15.1253 15.4613 14.2613 16.2933 13.152 16.848C12.064 17.4027 10.8053 17.68 9.376 17.68C7.712 17.68 6.304 17.3493 5.152 16.688C4 16.0053 3.12533 15.0773 2.528 13.904C1.952 12.7307 1.664 11.3973 1.664 9.904C1.664 8.38933 1.97333 7.03467 2.592 5.84C3.21067 4.64533 4.128 3.70667 5.344 3.024C6.58133 2.34133 8.10667 2 9.92 2ZM9.92 4.688C8.74667 4.688 7.76533 4.912 6.976 5.36C6.18667 5.808 5.58933 6.42667 5.184 7.216C4.8 7.984 4.608 8.88 4.608 9.904C4.608 10.928 4.8 11.8347 5.184 12.624C5.568 13.4133 6.13333 14.032 6.88 14.48C7.648 14.9067 8.58667 15.12 9.696 15.12C10.784 15.12 11.7547 14.9173 12.608 14.512C13.4827 14.1067 14.1653 13.52 14.656 12.752C15.1467 11.9627 15.392 11.0027 15.392 9.872C15.392 8.93333 15.2 8.06933 14.816 7.28C14.432 6.49067 13.8347 5.86133 13.024 5.392C12.2133 4.92267 11.1787 4.688 9.92 4.688ZM50.7308 26L59.4348 13.52V14.096L51.4988 2.64H55.0508L61.1628 11.6H61.6748L67.8828 2.64H71.2748L63.1148 14.224L63.0828 13.648L71.9148 26H68.3628L61.3868 16.176H60.8748L54.1228 26H50.7308Z" fill="black"/>
<path d="M80.3 26.36C79.54 26.36 78.84 26.22 78.2 25.94C77.56 25.66 77 25.2667 76.52 24.76C76.0533 24.2533 75.6867 23.6667 75.42 23C75.1667 22.3333 75.04 21.6133 75.04 20.84V20.48C75.04 19.72 75.1667 19.0067 75.42 18.34C75.6733 17.6733 76.0267 17.0867 76.48 16.58C76.9467 16.0733 77.4933 15.68 78.12 15.4C78.76 15.1067 79.4667 14.96 80.24 14.96C81.0533 14.96 81.7933 15.1333 82.46 15.48C83.1267 15.8133 83.6733 16.34 84.1 17.06C84.5267 17.78 84.7667 18.7133 84.82 19.86L84.02 18.58V11.4H85.94V26H84.42V21.26H84.98C84.9267 22.4733 84.6733 23.46 84.22 24.22C83.7667 24.9667 83.1933 25.5133 82.5 25.86C81.82 26.1933 81.0867 26.36 80.3 26.36ZM80.56 24.68C81.2133 24.68 81.8067 24.5333 82.34 24.24C82.8733 23.9467 83.3 23.5267 83.62 22.98C83.94 22.42 84.1 21.7667 84.1 21.02V20.1C84.1 19.3667 83.9333 18.7467 83.6 18.24C83.28 17.72 82.8467 17.3267 82.3 17.06C81.7667 16.78 81.18 16.64 80.54 16.64C79.8333 16.64 79.2067 16.8067 78.66 17.14C78.1267 17.4733 77.7067 17.94 77.4 18.54C77.1067 19.14 76.96 19.8467 76.96 20.66C76.96 21.4733 77.1133 22.1867 77.42 22.8C77.7267 23.4 78.1533 23.8667 78.7 24.2C79.2467 24.52 79.8667 24.68 80.56 24.68ZM94.1691 26.36C93.2357 26.36 92.4291 26.2 91.7491 25.88C91.0691 25.56 90.5157 25.14 90.0891 24.62C89.6624 24.0867 89.3424 23.4933 89.1291 22.84C88.9291 22.1867 88.8291 21.52 88.8291 20.84V20.48C88.8291 19.7867 88.9291 19.1133 89.1291 18.46C89.3424 17.8067 89.6624 17.22 90.0891 16.7C90.5157 16.1667 91.0557 15.7467 91.7091 15.44C92.3757 15.12 93.1557 14.96 94.0491 14.96C95.2091 14.96 96.1624 15.2133 96.9091 15.72C97.6691 16.2133 98.2291 16.8533 98.5891 17.64C98.9624 18.4267 99.1491 19.2667 99.1491 20.16V21.02H89.6691V19.58H97.7491L97.3091 20.36C97.3091 19.6 97.1891 18.9467 96.9491 18.4C96.7091 17.84 96.3491 17.4067 95.8691 17.1C95.3891 16.7933 94.7824 16.64 94.0491 16.64C93.2891 16.64 92.6557 16.8133 92.1491 17.16C91.6557 17.5067 91.2824 17.98 91.0291 18.58C90.7891 19.18 90.6691 19.8733 90.6691 20.66C90.6691 21.42 90.7891 22.1067 91.0291 22.72C91.2824 23.32 91.6691 23.8 92.1891 24.16C92.7091 24.5067 93.3691 24.68 94.1691 24.68C95.0091 24.68 95.6891 24.4933 96.2091 24.12C96.7424 23.7467 97.0624 23.3133 97.1691 22.82H98.9691C98.8224 23.5533 98.5291 24.1867 98.0891 24.72C97.6491 25.2533 97.0957 25.66 96.4291 25.94C95.7624 26.22 95.0091 26.36 94.1691 26.36ZM104.077 26L100.437 15.32H102.437L105.997 26H104.077ZM104.557 26V24.48H106.877V26H104.557ZM105.477 26L108.577 15.32H110.457L107.297 26H105.477Z" fill="black"/>
<path d="M47.3002 5.7352C45.9971 3.96118 44.2956 2.518 42.3327 1.52185C40.3699 0.525706 38.2005 0.00444333 35.9994 4.00153e-05H34.4015C34.2858 -0.00144927 34.1734 0.0386764 34.0848 0.113108C33.9962 0.187539 33.9373 0.291323 33.9188 0.405556L33.5085 2.9352C32.2387 3.21891 31.0282 3.72209 29.9314 4.4221L27.8556 2.89658C27.7624 2.83015 27.6486 2.79902 27.5345 2.80875C27.4204 2.81848 27.3135 2.86843 27.2329 2.94969L24.9737 5.23313C24.8919 5.31467 24.8421 5.42282 24.8332 5.53797C24.8244 5.65312 24.8571 5.76762 24.9254 5.86071L26.4316 7.92691C25.7183 9.02483 25.2112 10.2436 24.9351 11.5235L22.4055 11.9338C22.2913 11.9523 22.1875 12.0112 22.1131 12.0998C22.0387 12.1884 21.9986 12.3008 22 12.4166V15.6076C21.9987 15.724 22.0395 15.837 22.1149 15.9257C22.1903 16.0144 22.2953 16.0729 22.4104 16.0903L24.9447 16.4862C25.2258 17.7599 25.7291 18.9741 26.4316 20.0731L24.9254 22.1489C24.8571 22.242 24.8244 22.3565 24.8332 22.4717C24.8421 22.5868 24.8919 22.695 24.9737 22.7765L27.2232 25.0262C27.3048 25.108 27.4129 25.1578 27.5281 25.1667C27.6432 25.1755 27.7577 25.1428 27.8508 25.0745L29.9362 23.5682C31.0364 24.2683 32.2501 24.7715 33.523 25.0551L33.9236 27.5944C33.9421 27.7087 34.001 27.8125 34.0897 27.8869C34.1783 27.9613 34.2907 28.0014 34.4064 28H35.9994C38.2005 27.9956 40.3699 27.4743 42.3327 26.4781C44.2956 25.482 45.9971 24.0388 47.3002 22.2648C49.0545 19.8662 50 16.9717 50 14C50 11.0283 49.0545 8.13377 47.3002 5.7352ZM45.9148 22.4531L45.6541 22.7379L45.4176 22.9938C45.3307 23.0807 45.2438 23.1724 45.1521 23.2593L44.9059 23.5007L44.6259 23.7517L44.3652 23.9786L44.0756 24.2151L43.8004 24.4227C43.7039 24.5 43.6025 24.5724 43.4963 24.6448L43.2163 24.8379L42.9025 25.0407L42.608 25.2193L42.2846 25.4027C42.1832 25.4558 42.0867 25.5138 41.9853 25.562L41.6474 25.731L41.3385 25.8758L40.9957 26.0255L40.6819 26.151L40.3247 26.2813L40.0061 26.3924L39.6392 26.5034L39.4751 26.5517C40.9233 25.2869 42.106 23.2351 42.8832 20.6089C44.0475 20.9592 45.162 21.4573 46.1996 22.091L46.1368 22.2069C46.0644 22.2793 45.9872 22.3662 45.9148 22.4531ZM40.0158 1.60762L40.3344 1.71866L40.6916 1.849L41.0054 1.97452L41.3481 2.12417L41.6571 2.269C41.7729 2.3221 41.8839 2.38003 41.995 2.43796C42.106 2.4959 42.1929 2.54417 42.2943 2.59727L42.6177 2.78072L42.9122 2.95934L43.2259 3.1621L43.5059 3.3552C43.6121 3.42762 43.7135 3.50003 43.8101 3.57727L44.0852 3.78486L44.3749 4.02141L44.6355 4.2483L44.9155 4.49934L45.1617 4.74072C45.2534 4.82761 45.3403 4.91934 45.4272 5.00623L45.6638 5.26209L45.9148 5.54692C45.9872 5.63382 46.0644 5.72071 46.1368 5.81244L46.2093 5.90899C45.1709 6.54243 44.0566 7.04202 42.8929 7.39588C42.1157 4.76485 40.9233 2.71314 39.4847 1.44831L39.6489 1.49659L40.0158 1.60762ZM36.4821 21.7917V19.6C38.3332 19.6278 40.1743 19.8774 41.966 20.3434C40.8268 24.1379 38.7462 26.682 36.4821 27.0007V21.7917ZM42.2122 19.3779C40.3384 18.9043 38.4148 18.6563 36.4821 18.6393V14.4828H42.8349C42.809 16.1404 42.6002 17.7902 42.2122 19.4021V19.3779ZM36.4821 13.5172V9.3607C38.4157 9.33576 40.3394 9.07969 42.2122 8.59795C42.6002 10.2098 42.809 11.8596 42.8349 13.5172H36.4821ZM36.4821 0.999348C38.7462 1.31797 40.8268 3.84762 41.966 7.65657C40.1743 8.12258 38.3332 8.37217 36.4821 8.40002V0.999348ZM35.5167 8.8876V21.28C34.4527 21.2092 33.417 20.9073 32.4816 20.3954C31.5462 19.8835 30.7336 19.1738 30.1004 18.3158C29.1848 17.0631 28.6913 15.5517 28.6913 14C28.6913 12.4483 29.1848 10.9369 30.1004 9.68415C30.7336 8.82618 31.5462 8.11655 32.4816 7.60464C33.417 7.09273 34.4527 6.79085 35.5167 6.72002V8.8876ZM43.8004 14.4828H49.0333C48.9511 16.9242 48.1759 19.2918 46.7982 21.3089C45.6657 20.6011 44.4431 20.049 43.1632 19.6676C43.5657 17.968 43.7794 16.2292 43.8004 14.4828ZM43.8004 13.5172C43.7731 11.7701 43.5529 10.0313 43.1439 8.33243C44.4237 7.95099 45.6464 7.3989 46.7789 6.69106C48.1634 8.70613 48.9454 11.0739 49.0333 13.5172H43.8004Z" fill="#3B82F6"/>
</svg>
